<?xml version="1.0" encoding="UTF-8"?>
<svg version="1.1" xmlns="http://www.w3.org/2000/svg" width="512" height="512">
<path d="M0,0 L16,0 L16,1 L18,1 L18,5 L20,5 L20,19 L18,19 L18,43 L16,43 L16,67 L14,67 L14,91 L12,91 L12,115 L10,115 L10,139 L8,139 L8,163 L6,163 L6,185 L32,185 L32,187 L34,187 L34,191 L36,191 L36,193 L48,193 L48,191 L49,191 L49,190 L50,190 L50,187 L52,187 L52,185 L94,185 L94,187 L96,187 L96,188 L97,188 L97,189 L98,189 L98,191 L100,191 L100,201 L98,201 L98,205 L97,205 L97,206 L96,206 L96,209 L95,209 L95,210 L94,210 L94,213 L93,213 L93,214 L92,214 L92,217 L91,217 L91,218 L90,218 L90,221 L89,221 L89,222 L88,222 L88,225 L87,225 L87,226 L86,226 L86,229 L85,229 L85,230 L84,230 L84,233 L83,233 L83,234 L82,234 L82,237 L81,237 L81,238 L80,238 L80,241 L79,241 L79,242 L78,242 L78,245 L77,245 L77,246 L76,246 L76,249 L75,249 L75,250 L74,250 L74,253 L73,253 L73,254 L72,254 L72,257 L71,257 L71,258 L70,258 L70,261 L69,261 L69,262 L68,262 L68,265 L67,265 L67,266 L66,266 L66,269 L65,269 L65,270 L64,270 L64,273 L63,273 L63,274 L62,274 L62,277 L61,277 L61,278 L60,278 L60,281 L59,281 L59,282 L58,282 L58,285 L57,285 L57,286 L56,286 L56,289 L55,289 L55,290 L54,290 L54,293 L53,293 L53,294 L52,294 L52,297 L51,297 L51,298 L50,298 L50,301 L49,301 L49,302 L48,302 L48,305 L47,305 L47,306 L46,306 L46,309 L45,309 L45,310 L44,310 L44,313 L43,313 L43,314 L42,314 L42,317 L41,317 L41,318 L40,318 L40,321 L39,321 L39,322 L38,322 L38,325 L37,325 L37,326 L36,326 L36,329 L35,329 L35,330 L34,330 L34,333 L33,333 L33,334 L32,334 L32,337 L31,337 L31,338 L30,338 L30,341 L29,341 L29,342 L28,342 L28,345 L27,345 L27,346 L26,346 L26,349 L25,349 L25,350 L24,350 L24,353 L23,353 L23,354 L22,354 L22,357 L21,357 L21,358 L20,358 L20,361 L19,361 L19,362 L18,362 L18,365 L17,365 L17,366 L16,366 L16,369 L15,369 L15,370 L14,370 L14,373 L13,373 L13,374 L12,374 L12,377 L11,377 L11,378 L10,378 L10,381 L8,381 L8,383 L0,383 L0,385 L-2,385 L-2,389 L-4,389 L-4,393 L-6,393 L-6,397 L-4,397 L-4,409 L-5,409 L-5,410 L-6,410 L-6,413 L-7,413 L-7,414 L-8,414 L-8,417 L-9,417 L-9,418 L-10,418 L-10,421 L-11,421 L-11,422 L-12,422 L-12,425 L-13,425 L-13,426 L-14,426 L-14,429 L-15,429 L-15,430 L-16,430 L-16,433 L-17,433 L-17,434 L-18,434 L-18,437 L-19,437 L-19,438 L-20,438 L-20,441 L-21,441 L-21,442 L-22,442 L-22,445 L-23,445 L-23,446 L-24,446 L-24,449 L-25,449 L-25,450 L-26,450 L-26,453 L-27,453 L-27,454 L-28,454 L-28,457 L-29,457 L-29,458 L-30,458 L-30,461 L-31,461 L-31,462 L-32,462 L-32,465 L-33,465 L-33,466 L-34,466 L-34,469 L-35,469 L-35,470 L-36,470 L-36,473 L-37,473 L-37,474 L-38,474 L-38,477 L-39,477 L-39,478 L-40,478 L-40,481 L-41,481 L-41,482 L-42,482 L-42,485 L-43,485 L-43,486 L-44,486 L-44,489 L-45,489 L-45,490 L-46,490 L-46,493 L-47,493 L-47,494 L-48,494 L-48,497 L-49,497 L-49,498 L-50,498 L-50,502 L-51,502 L-51,503 L-52,503 L-52,506 L-53,506 L-53,507 L-54,507 L-54,509 L-56,509 L-56,511 L-58,511 L-58,512 L-72,512 L-72,511 L-74,511 L-74,509 L-76,509 L-76,487 L-75,487 L-75,486 L-74,486 L-74,466 L-73,466 L-73,465 L-72,465 L-72,446 L-71,446 L-71,445 L-70,445 L-70,425 L-68,425 L-68,405 L-66,405 L-66,385 L-65,385 L-65,384 L-64,384 L-64,364 L-63,364 L-63,363 L-62,363 L-62,344 L-61,344 L-61,343 L-60,343 L-60,323 L-58,323 L-58,315 L-151,315 L-151,314 L-152,314 L-152,313 L-153,313 L-153,312 L-154,312 L-154,307 L-156,307 L-156,301 L-154,301 L-154,296 L-153,296 L-153,295 L-152,295 L-152,293 L-151,293 L-151,292 L-150,292 L-150,289 L-148,289 L-148,285 L-146,285 L-146,281 L-144,281 L-144,277 L-142,277 L-142,273 L-140,273 L-140,269 L-138,269 L-138,265 L-136,265 L-136,261 L-134,261 L-134,257 L-132,257 L-132,253 L-130,253 L-130,249 L-128,249 L-128,245 L-126,245 L-126,241 L-124,241 L-124,237 L-122,237 L-122,234 L-121,234 L-121,233 L-120,233 L-120,230 L-119,230 L-119,229 L-118,229 L-118,227 L-117,227 L-117,226 L-116,226 L-116,223 L-115,223 L-115,222 L-114,222 L-114,219 L-112,219 L-112,215 L-110,215 L-110,211 L-108,211 L-108,207 L-106,207 L-106,203 L-104,203 L-104,199 L-102,199 L-102,195 L-100,195 L-100,191 L-98,191 L-98,187 L-96,187 L-96,183 L-94,183 L-94,179 L-92,179 L-92,175 L-90,175 L-90,171 L-88,171 L-88,167 L-86,167 L-86,164 L-85,164 L-85,163 L-84,163 L-84,160 L-83,160 L-83,159 L-82,159 L-82,157 L-81,157 L-81,156 L-80,156 L-80,153 L-79,153 L-79,152 L-78,152 L-78,149 L-76,149 L-76,145 L-74,145 L-74,141 L-72,141 L-72,137 L-70,137 L-70,135 L-62,135 L-62,133 L-60,133 L-60,129 L-58,129 L-58,125 L-56,125 L-56,121 L-58,121 L-58,109 L-56,109 L-56,105 L-54,105 L-54,101 L-52,101 L-52,98 L-51,98 L-51,97 L-50,97 L-50,94 L-49,94 L-49,93 L-48,93 L-48,91 L-47,91 L-47,90 L-46,90 L-46,87 L-45,87 L-45,86 L-44,86 L-44,83 L-42,83 L-42,79 L-40,79 L-40,75 L-38,75 L-38,71 L-36,71 L-36,67 L-34,67 L-34,63 L-32,63 L-32,59 L-30,59 L-30,55 L-28,55 L-28,51 L-26,51 L-26,47 L-24,47 L-24,43 L-22,43 L-22,39 L-20,39 L-20,35 L-18,35 L-18,31 L-16,31 L-16,28 L-15,28 L-15,27 L-14,27 L-14,24 L-13,24 L-13,23 L-12,23 L-12,21 L-11,21 L-11,20 L-10,20 L-10,17 L-9,17 L-9,16 L-8,16 L-8,13 L-6,13 L-6,9 L-4,9 L-4,5 L-2,5 L-2,1 L0,1 Z " fill="#FCE77B" transform="translate(267,0)"/>
<path d="M0,0 L2,0 L2,6 L1,6 L1,17 L0,17 L0,29 L-1,29 L-1,38 L-2,38 L-2,52 L-3,52 L-3,62 L-4,62 L-4,72 L-5,72 L-5,78 L-6,78 L-6,93 L-7,93 L-7,94 L-8,94 L-8,122 L-9,122 L-9,126 L-10,126 L-10,152 L-11,152 L-11,157 L-10,157 L-10,160 L-9,160 L-9,161 L-8,161 L-8,162 L-7,162 L-7,163 L-9,163 L-9,162 L-10,162 L-10,161 L-11,161 L-11,159 L-12,159 L-12,142 L-11,142 L-11,117 L-10,117 L-10,114 L-9,114 L-9,89 L-8,89 L-8,88 L-7,88 L-7,77 L-8,77 L-8,80 L-9,80 L-9,81 L-11,81 L-11,83 L-12,83 L-12,85 L-13,85 L-13,87 L-14,87 L-14,89 L-15,89 L-15,91 L-16,91 L-16,93 L-17,93 L-17,96 L-18,96 L-18,97 L-19,97 L-19,99 L-20,99 L-20,104 L-21,104 L-21,106 L-22,106 L-22,108 L-24,108 L-24,112 L-25,112 L-25,114 L-26,114 L-26,116 L-27,116 L-27,118 L-28,118 L-28,120 L-29,120 L-29,122 L-30,122 L-30,124 L-31,124 L-31,126 L-32,126 L-32,127 L-33,127 L-33,129 L-34,129 L-34,131 L-35,131 L-35,134 L-36,134 L-36,135 L-37,135 L-37,136 L-38,136 L-38,139 L-39,139 L-39,140 L-40,140 L-40,143 L-41,143 L-41,145 L-42,145 L-42,147 L-43,147 L-43,148 L-44,148 L-44,151 L-45,151 L-45,152 L-46,152 L-46,154 L-47,154 L-47,157 L-48,157 L-48,159 L-49,159 L-49,160 L-50,160 L-50,162 L-51,162 L-51,164 L-52,164 L-52,166 L-53,166 L-53,167 L-54,167 L-54,170 L-55,170 L-55,172 L-56,172 L-56,174 L-57,174 L-57,176 L-58,176 L-58,178 L-59,178 L-59,180 L-60,180 L-60,182 L-61,182 L-61,184 L-62,184 L-62,186 L-63,186 L-63,189 L-64,189 L-64,190 L-65,190 L-65,192 L-66,192 L-66,193 L-67,193 L-67,195 L-68,195 L-68,197 L-69,197 L-69,199 L-70,199 L-70,201 L-71,201 L-71,204 L-72,204 L-72,205 L-73,205 L-73,206 L-74,206 L-74,209 L-75,209 L-75,210 L-76,210 L-76,213 L-77,213 L-77,214 L-78,214 L-78,217 L-79,217 L-79,219 L-82,219 L-82,227 L-81,227 L-81,229 L-80,229 L-80,233 L-79,233 L-79,234 L-77,234 L-77,235 L-76,235 L-76,236 L-75,236 L-75,237 L-9,237 L-9,238 L-7,238 L-7,252 L-8,252 L-8,258 L-9,258 L-9,273 L-10,273 L-10,278 L-11,278 L-11,293 L-12,293 L-12,298 L-13,298 L-13,313 L-14,313 L-14,319 L-15,319 L-15,334 L-16,334 L-16,357 L-5,357 L-5,359 L-3,359 L-3,371 L-4,371 L-4,372 L-5,372 L-5,375 L-6,375 L-6,376 L-7,376 L-7,379 L-8,379 L-8,380 L-9,380 L-9,383 L-10,383 L-10,384 L-11,384 L-11,387 L-12,387 L-12,388 L-13,388 L-13,391 L-14,391 L-14,392 L-15,392 L-15,395 L-16,395 L-16,396 L-17,396 L-17,399 L-18,399 L-18,400 L-19,400 L-19,403 L-20,403 L-20,404 L-21,404 L-21,407 L-22,407 L-22,408 L-23,408 L-23,411 L-24,411 L-24,412 L-25,412 L-25,415 L-26,415 L-26,416 L-27,416 L-27,419 L-28,419 L-28,420 L-29,420 L-29,423 L-30,423 L-30,424 L-31,424 L-31,427 L-32,427 L-32,428 L-33,428 L-33,431 L-34,431 L-34,432 L-35,432 L-35,435 L-36,435 L-36,436 L-37,436 L-37,439 L-38,439 L-38,440 L-39,440 L-39,443 L-40,443 L-40,444 L-41,444 L-41,447 L-42,447 L-42,448 L-43,448 L-43,451 L-44,451 L-44,452 L-45,452 L-45,455 L-46,455 L-46,456 L-47,456 L-47,459 L-48,459 L-48,460 L-49,460 L-49,464 L-50,464 L-50,465 L-51,465 L-51,468 L-52,468 L-52,469 L-53,469 L-53,471 L-55,471 L-55,473 L-57,473 L-57,474 L-71,474 L-71,473 L-73,473 L-73,471 L-75,471 L-75,449 L-74,449 L-74,448 L-73,448 L-73,428 L-72,428 L-72,427 L-71,427 L-71,408 L-70,408 L-70,407 L-69,407 L-69,387 L-67,387 L-67,367 L-65,367 L-65,347 L-64,347 L-64,346 L-63,346 L-63,326 L-62,326 L-62,325 L-61,325 L-61,306 L-60,306 L-60,305 L-59,305 L-59,285 L-57,285 L-57,277 L-150,277 L-150,276 L-151,276 L-151,275 L-152,275 L-152,274 L-153,274 L-153,269 L-155,269 L-155,263 L-153,263 L-153,258 L-152,258 L-152,257 L-151,257 L-151,255 L-150,255 L-150,254 L-149,254 L-149,251 L-147,251 L-147,247 L-145,247 L-145,243 L-143,243 L-143,239 L-141,239 L-141,235 L-139,235 L-139,231 L-137,231 L-137,227 L-135,227 L-135,223 L-133,223 L-133,219 L-131,219 L-131,215 L-129,215 L-129,211 L-127,211 L-127,207 L-125,207 L-125,203 L-123,203 L-123,199 L-121,199 L-121,196 L-120,196 L-120,195 L-119,195 L-119,192 L-118,192 L-118,191 L-117,191 L-117,189 L-116,189 L-116,188 L-115,188 L-115,185 L-114,185 L-114,184 L-113,184 L-113,181 L-111,181 L-111,177 L-109,177 L-109,173 L-107,173 L-107,169 L-105,169 L-105,165 L-103,165 L-103,161 L-101,161 L-101,157 L-99,157 L-99,153 L-97,153 L-97,149 L-95,149 L-95,145 L-93,145 L-93,141 L-91,141 L-91,137 L-89,137 L-89,133 L-87,133 L-87,129 L-85,129 L-85,126 L-84,126 L-84,125 L-83,125 L-83,122 L-82,122 L-82,121 L-81,121 L-81,119 L-80,119 L-80,118 L-79,118 L-79,115 L-78,115 L-78,114 L-77,114 L-77,111 L-75,111 L-75,107 L-73,107 L-73,103 L-71,103 L-71,99 L-69,99 L-69,97 L-61,97 L-61,95 L-59,95 L-59,91 L-57,91 L-57,87 L-55,87 L-55,85 L-53,85 L-53,84 L-43,84 L-43,83 L-42,83 L-42,82 L-41,82 L-41,81 L-40,81 L-40,76 L-39,76 L-39,75 L-38,75 L-38,73 L-37,73 L-37,72 L-36,72 L-36,69 L-35,69 L-35,68 L-34,68 L-34,65 L-33,65 L-33,64 L-32,64 L-32,61 L-31,61 L-31,60 L-30,60 L-30,57 L-29,57 L-29,56 L-28,56 L-28,55 L-27,55 L-27,54 L-26,54 L-26,51 L-25,51 L-25,50 L-24,50 L-24,45 L-23,45 L-23,43 L-22,43 L-22,41 L-21,41 L-21,39 L-19,39 L-19,38 L-18,38 L-18,34 L-16,34 L-16,30 L-14,30 L-14,26 L-12,26 L-12,22 L-10,22 L-10,20 L-9,20 L-9,19 L-8,19 L-8,14 L-7,14 L-7,13 L-6,13 L-6,10 L-5,10 L-5,9 L-4,9 L-4,6 L-3,6 L-3,2 L-2,2 L-2,1 L0,1 Z " fill="#FCE35A" transform="translate(266,38)"/>
<path d="M0,0 L9,0 L9,2 L10,2 L10,3 L11,3 L11,4 L12,4 L12,5 L14,5 L14,6 L15,6 L15,11 L14,11 L14,13 L13,13 L13,15 L12,15 L12,16 L10,16 L10,18 L9,18 L9,20 L8,20 L8,22 L7,22 L7,25 L6,25 L6,26 L5,26 L5,29 L4,29 L4,30 L3,30 L3,33 L2,33 L2,34 L1,34 L1,37 L0,37 L0,38 L-1,38 L-1,41 L-2,41 L-2,42 L-3,42 L-3,46 L-4,46 L-4,47 L-5,47 L-5,48 L-6,48 L-6,49 L-7,49 L-7,52 L-8,52 L-8,53 L-9,53 L-9,56 L-10,56 L-10,57 L-11,57 L-11,61 L-13,61 L-13,65 L-15,65 L-15,69 L-17,69 L-17,73 L-19,73 L-19,77 L-20,77 L-20,78 L-22,78 L-22,80 L-23,80 L-23,82 L-24,82 L-24,84 L-25,84 L-25,86 L-26,86 L-26,88 L-27,88 L-27,91 L-28,91 L-28,92 L-29,92 L-29,95 L-30,95 L-30,96 L-31,96 L-31,99 L-32,99 L-32,100 L-33,100 L-33,103 L-34,103 L-34,104 L-35,104 L-35,107 L-36,107 L-36,108 L-37,108 L-37,111 L-40,111 L-40,115 L-41,115 L-41,118 L-42,118 L-42,119 L-43,119 L-43,122 L-44,122 L-44,123 L-45,123 L-45,127 L-46,127 L-46,129 L-47,129 L-47,131 L-49,131 L-49,135 L-51,135 L-51,139 L-53,139 L-53,143 L-55,143 L-55,147 L-56,147 L-56,148 L-58,148 L-58,150 L-59,150 L-59,152 L-60,152 L-60,154 L-61,154 L-61,159 L-62,159 L-62,160 L-63,160 L-63,164 L24,164 L24,165 L25,165 L25,166 L26,166 L26,167 L27,167 L27,169 L28,169 L28,170 L29,170 L29,191 L28,191 L28,195 L27,195 L27,205 L26,205 L26,207 L25,207 L25,226 L24,226 L24,229 L23,229 L23,247 L22,247 L22,248 L21,248 L21,267 L20,267 L20,273 L19,273 L19,293 L18,293 L18,297 L17,297 L17,313 L16,313 L16,315 L15,315 L15,333 L16,333 L16,332 L17,332 L17,331 L18,331 L18,330 L19,330 L19,325 L20,325 L20,324 L21,324 L21,321 L22,321 L22,320 L23,320 L23,317 L24,317 L24,316 L25,316 L25,313 L26,313 L26,312 L27,312 L27,309 L28,309 L28,308 L29,308 L29,305 L30,305 L30,304 L31,304 L31,301 L32,301 L32,300 L33,300 L33,297 L34,297 L34,296 L35,296 L35,293 L36,293 L36,292 L37,292 L37,289 L38,289 L38,288 L39,288 L39,285 L40,285 L40,284 L41,284 L41,281 L42,281 L42,280 L43,280 L43,277 L44,277 L44,276 L45,276 L45,273 L46,273 L46,272 L47,272 L47,269 L48,269 L48,268 L49,268 L49,265 L50,265 L50,263 L53,263 L53,261 L64,261 L64,262 L66,262 L66,274 L65,274 L65,275 L64,275 L64,278 L63,278 L63,279 L62,279 L62,282 L61,282 L61,283 L60,283 L60,286 L59,286 L59,287 L58,287 L58,290 L57,290 L57,291 L56,291 L56,294 L55,294 L55,295 L54,295 L54,298 L53,298 L53,299 L52,299 L52,302 L51,302 L51,303 L50,303 L50,306 L49,306 L49,307 L48,307 L48,310 L47,310 L47,311 L46,311 L46,314 L45,314 L45,315 L44,315 L44,318 L43,318 L43,319 L42,319 L42,322 L41,322 L41,323 L40,323 L40,326 L39,326 L39,327 L38,327 L38,330 L37,330 L37,331 L36,331 L36,334 L35,334 L35,335 L34,335 L34,338 L33,338 L33,339 L32,339 L32,342 L31,342 L31,343 L30,343 L30,346 L29,346 L29,347 L28,347 L28,350 L27,350 L27,351 L26,351 L26,354 L25,354 L25,355 L24,355 L24,358 L23,358 L23,359 L22,359 L22,362 L21,362 L21,363 L20,363 L20,367 L19,367 L19,368 L18,368 L18,371 L17,371 L17,372 L16,372 L16,374 L14,374 L14,376 L12,376 L12,377 L-2,377 L-2,376 L-4,376 L-4,374 L-6,374 L-6,352 L-5,352 L-5,351 L-4,351 L-4,331 L-3,331 L-3,330 L-2,330 L-2,311 L-1,311 L-1,310 L0,310 L0,290 L2,290 L2,270 L4,270 L4,250 L5,250 L5,249 L6,249 L6,229 L7,229 L7,228 L8,228 L8,209 L9,209 L9,208 L10,208 L10,188 L12,188 L12,180 L-81,180 L-81,179 L-82,179 L-82,178 L-83,178 L-83,177 L-84,177 L-84,172 L-86,172 L-86,166 L-84,166 L-84,161 L-83,161 L-83,160 L-82,160 L-82,158 L-81,158 L-81,157 L-80,157 L-80,154 L-78,154 L-78,150 L-76,150 L-76,146 L-74,146 L-74,142 L-72,142 L-72,138 L-70,138 L-70,134 L-68,134 L-68,130 L-66,130 L-66,126 L-64,126 L-64,122 L-62,122 L-62,118 L-60,118 L-60,114 L-58,114 L-58,110 L-56,110 L-56,106 L-54,106 L-54,102 L-52,102 L-52,99 L-51,99 L-51,98 L-50,98 L-50,95 L-49,95 L-49,94 L-48,94 L-48,92 L-47,92 L-47,91 L-46,91 L-46,88 L-45,88 L-45,87 L-44,87 L-44,84 L-42,84 L-42,80 L-40,80 L-40,76 L-38,76 L-38,72 L-36,72 L-36,68 L-34,68 L-34,64 L-32,64 L-32,60 L-30,60 L-30,56 L-28,56 L-28,52 L-26,52 L-26,48 L-24,48 L-24,44 L-22,44 L-22,40 L-20,40 L-20,36 L-18,36 L-18,32 L-16,32 L-16,29 L-15,29 L-15,28 L-14,28 L-14,25 L-13,25 L-13,24 L-12,24 L-12,22 L-11,22 L-11,21 L-10,21 L-10,18 L-9,18 L-9,17 L-8,17 L-8,14 L-6,14 L-6,10 L-4,10 L-4,6 L-2,6 L-2,2 L0,2 Z " fill="#010100" transform="translate(197,135)"/>
<path d="M0,0 L16,0 L16,1 L18,1 L18,5 L20,5 L20,19 L18,19 L18,43 L16,43 L16,67 L14,67 L14,91 L12,91 L12,115 L10,115 L10,139 L8,139 L8,163 L6,163 L6,185 L32,185 L32,187 L34,187 L34,191 L36,191 L36,193 L34,193 L34,195 L33,195 L33,199 L32,199 L32,200 L31,200 L31,201 L29,201 L29,202 L-7,202 L-7,201 L-8,201 L-8,200 L-9,200 L-9,199 L-10,199 L-10,198 L-11,198 L-11,195 L-12,195 L-12,190 L-11,190 L-11,164 L-10,164 L-10,160 L-9,160 L-9,132 L-8,132 L-8,131 L-7,131 L-7,116 L-6,116 L-6,110 L-5,110 L-5,100 L-4,100 L-4,90 L-3,90 L-3,76 L-2,76 L-2,67 L-1,67 L-1,55 L0,55 L0,44 L1,44 L1,38 L-1,38 L-1,39 L-3,39 L-3,40 L-4,40 L-4,44 L-5,44 L-5,47 L-6,47 L-6,48 L-7,48 L-7,51 L-8,51 L-8,52 L-9,52 L-9,57 L-10,57 L-10,58 L-11,58 L-11,60 L-13,60 L-13,64 L-15,64 L-15,68 L-17,68 L-17,72 L-19,72 L-19,76 L-20,76 L-20,77 L-22,77 L-22,79 L-23,79 L-23,81 L-24,81 L-24,83 L-25,83 L-25,88 L-26,88 L-26,89 L-27,89 L-27,92 L-28,92 L-28,93 L-29,93 L-29,94 L-30,94 L-30,95 L-31,95 L-31,98 L-32,98 L-32,99 L-33,99 L-33,102 L-34,102 L-34,103 L-35,103 L-35,106 L-36,106 L-36,107 L-37,107 L-37,110 L-38,110 L-38,111 L-39,111 L-39,113 L-40,113 L-40,114 L-41,114 L-41,119 L-42,119 L-42,120 L-43,120 L-43,121 L-44,121 L-44,122 L-54,122 L-54,123 L-56,123 L-56,121 L-58,121 L-58,109 L-56,109 L-56,105 L-54,105 L-54,101 L-52,101 L-52,98 L-51,98 L-51,97 L-50,97 L-50,94 L-49,94 L-49,93 L-48,93 L-48,91 L-47,91 L-47,90 L-46,90 L-46,87 L-45,87 L-45,86 L-44,86 L-44,83 L-42,83 L-42,79 L-40,79 L-40,75 L-38,75 L-38,71 L-36,71 L-36,67 L-34,67 L-34,63 L-32,63 L-32,59 L-30,59 L-30,55 L-28,55 L-28,51 L-26,51 L-26,47 L-24,47 L-24,43 L-22,43 L-22,39 L-20,39 L-20,35 L-18,35 L-18,31 L-16,31 L-16,28 L-15,28 L-15,27 L-14,27 L-14,24 L-13,24 L-13,23 L-12,23 L-12,21 L-11,21 L-11,20 L-10,20 L-10,17 L-9,17 L-9,16 L-8,16 L-8,13 L-6,13 L-6,9 L-4,9 L-4,5 L-2,5 L-2,1 L0,1 Z " fill="#010100" transform="translate(267,0)"/>
<path d="M0,0 L42,0 L42,2 L44,2 L44,3 L45,3 L45,4 L46,4 L46,6 L48,6 L48,16 L46,16 L46,20 L45,20 L45,21 L44,21 L44,24 L43,24 L43,25 L42,25 L42,28 L41,28 L41,29 L40,29 L40,32 L39,32 L39,33 L38,33 L38,36 L37,36 L37,37 L36,37 L36,40 L35,40 L35,41 L34,41 L34,44 L33,44 L33,45 L32,45 L32,48 L31,48 L31,49 L30,49 L30,52 L29,52 L29,53 L28,53 L28,56 L27,56 L27,57 L26,57 L26,60 L25,60 L25,61 L24,61 L24,64 L23,64 L23,65 L22,65 L22,68 L21,68 L21,69 L20,69 L20,72 L19,72 L19,73 L18,73 L18,76 L17,76 L17,77 L16,77 L16,80 L15,80 L15,81 L14,81 L14,84 L13,84 L13,85 L12,85 L12,88 L11,88 L11,89 L10,89 L10,92 L9,92 L9,93 L8,93 L8,96 L7,96 L7,97 L6,97 L6,100 L5,100 L5,101 L4,101 L4,104 L3,104 L3,105 L2,105 L2,108 L1,108 L1,109 L0,109 L0,112 L-1,112 L-1,113 L-2,113 L-2,116 L-3,116 L-3,117 L-4,117 L-4,120 L-5,120 L-5,121 L-6,121 L-6,124 L-7,124 L-7,125 L-8,125 L-8,128 L-9,128 L-9,129 L-10,129 L-10,132 L-11,132 L-11,133 L-12,133 L-12,136 L-13,136 L-13,137 L-14,137 L-14,140 L-15,140 L-15,141 L-16,141 L-16,144 L-17,144 L-17,145 L-18,145 L-18,148 L-19,148 L-19,149 L-20,149 L-20,152 L-21,152 L-21,153 L-22,153 L-22,156 L-23,156 L-23,157 L-24,157 L-24,160 L-25,160 L-25,161 L-26,161 L-26,164 L-27,164 L-27,165 L-28,165 L-28,168 L-29,168 L-29,169 L-30,169 L-30,172 L-31,172 L-31,173 L-32,173 L-32,176 L-33,176 L-33,177 L-34,177 L-34,180 L-35,180 L-35,181 L-36,181 L-36,184 L-37,184 L-37,185 L-38,185 L-38,188 L-39,188 L-39,189 L-40,189 L-40,192 L-41,192 L-41,193 L-42,193 L-42,196 L-44,196 L-44,198 L-53,198 L-53,195 L-57,195 L-57,192 L-58,192 L-58,187 L-57,187 L-57,183 L-56,183 L-56,182 L-55,182 L-55,179 L-54,179 L-54,178 L-53,178 L-53,175 L-52,175 L-52,174 L-51,174 L-51,171 L-50,171 L-50,170 L-49,170 L-49,167 L-48,167 L-48,166 L-47,166 L-47,163 L-46,163 L-46,162 L-45,162 L-45,159 L-44,159 L-44,158 L-43,158 L-43,155 L-42,155 L-42,154 L-41,154 L-41,151 L-40,151 L-40,150 L-39,150 L-39,147 L-38,147 L-38,146 L-37,146 L-37,143 L-36,143 L-36,142 L-35,142 L-35,139 L-34,139 L-34,138 L-33,138 L-33,135 L-32,135 L-32,134 L-31,134 L-31,131 L-30,131 L-30,130 L-29,130 L-29,127 L-28,127 L-28,126 L-27,126 L-27,123 L-26,123 L-26,122 L-25,122 L-25,119 L-24,119 L-24,118 L-23,118 L-23,115 L-22,115 L-22,114 L-21,114 L-21,111 L-20,111 L-20,110 L-19,110 L-19,107 L-18,107 L-18,106 L-17,106 L-17,103 L-16,103 L-16,102 L-15,102 L-15,99 L-14,99 L-14,98 L-13,98 L-13,95 L-12,95 L-12,94 L-11,94 L-11,91 L-10,91 L-10,90 L-9,90 L-9,87 L-8,87 L-8,86 L-7,86 L-7,83 L-6,83 L-6,82 L-5,82 L-5,79 L-4,79 L-4,78 L-3,78 L-3,75 L-2,75 L-2,74 L-1,74 L-1,71 L0,71 L0,70 L1,70 L1,67 L2,67 L2,66 L3,66 L3,63 L4,63 L4,62 L5,62 L5,59 L6,59 L6,58 L7,58 L7,55 L8,55 L8,54 L9,54 L9,51 L10,51 L10,50 L11,50 L11,47 L12,47 L12,46 L13,46 L13,43 L14,43 L14,42 L15,42 L15,39 L16,39 L16,38 L17,38 L17,35 L18,35 L18,34 L19,34 L19,31 L20,31 L20,30 L21,30 L21,27 L22,27 L22,26 L23,26 L23,25 L24,25 L24,24 L25,24 L25,20 L26,20 L26,17 L2,17 L2,16 L1,16 L1,13 L0,13 L0,12 L-1,12 L-1,9 L-2,9 L-2,8 L-4,8 L-4,6 L-3,6 L-3,5 L-2,5 L-2,2 L0,2 Z " fill="#000000" transform="translate(319,185)"/>
<path d="M0,0 L8,0 L8,1 L9,1 L9,2 L11,2 L11,4 L13,4 L13,6 L15,6 L15,8 L16,8 L16,9 L17,9 L17,12 L19,12 L19,14 L21,14 L21,16 L22,16 L22,17 L23,17 L23,20 L25,20 L25,22 L27,22 L27,25 L28,25 L28,26 L29,26 L29,28 L31,28 L31,30 L32,30 L32,31 L33,31 L33,40 L31,40 L31,44 L27,44 L27,45 L26,45 L26,46 L20,46 L20,45 L19,45 L19,44 L17,44 L17,42 L15,42 L15,40 L13,40 L13,38 L11,38 L11,35 L10,35 L10,34 L9,34 L9,32 L7,32 L7,30 L5,30 L5,26 L3,26 L3,24 L1,24 L1,22 L-1,22 L-1,18 L-3,18 L-3,16 L-5,16 L-5,4 L-3,4 L-3,2 L-1,2 L-1,1 L0,1 Z " fill="#000000" transform="translate(368,381)"/>
<path d="M0,0 L8,0 L8,1 L9,1 L9,2 L11,2 L11,4 L13,4 L13,16 L11,16 L11,18 L9,18 L9,22 L7,22 L7,24 L5,24 L5,26 L3,26 L3,30 L1,30 L1,32 L-1,32 L-1,34 L-2,34 L-2,35 L-3,35 L-3,38 L-5,38 L-5,40 L-7,40 L-7,42 L-9,42 L-9,44 L-11,44 L-11,45 L-12,45 L-12,46 L-18,46 L-18,45 L-19,45 L-19,44 L-23,44 L-23,40 L-25,40 L-25,31 L-24,31 L-24,30 L-23,30 L-23,28 L-21,28 L-21,26 L-19,26 L-19,22 L-17,22 L-17,20 L-15,20 L-15,18 L-14,18 L-14,17 L-13,17 L-13,14 L-11,14 L-11,12 L-9,12 L-9,9 L-8,9 L-8,8 L-7,8 L-7,6 L-5,6 L-5,4 L-3,4 L-3,2 L-1,2 L-1,1 L0,1 Z " fill="#000000" transform="translate(136,381)"/>
<path d="M0,0 L12,0 L12,2 L14,2 L14,4 L16,4 L16,6 L18,6 L18,10 L20,10 L20,12 L22,12 L22,14 L23,14 L23,15 L24,15 L24,18 L26,18 L26,20 L28,20 L28,22 L29,22 L29,23 L30,23 L30,26 L32,26 L32,28 L34,28 L34,40 L32,40 L32,42 L30,42 L30,44 L20,44 L20,42 L18,42 L18,40 L16,40 L16,38 L14,38 L14,36 L12,36 L12,32 L10,32 L10,30 L8,30 L8,28 L7,28 L7,27 L6,27 L6,24 L4,24 L4,22 L2,22 L2,20 L1,20 L1,19 L0,19 L0,16 L-2,16 L-2,14 L-3,14 L-3,13 L-4,13 L-4,4 L-2,4 L-2,2 L-1,2 L-1,1 L0,1 Z " fill="#000000" transform="translate(115,89)"/>
<path d="M0,0 L12,0 L12,1 L13,1 L13,2 L14,2 L14,4 L16,4 L16,13 L15,13 L15,14 L14,14 L14,16 L12,16 L12,19 L11,19 L11,20 L10,20 L10,22 L8,22 L8,24 L6,24 L6,28 L4,28 L4,30 L2,30 L2,32 L0,32 L0,36 L-2,36 L-2,38 L-4,38 L-4,40 L-6,40 L-6,42 L-8,42 L-8,44 L-18,44 L-18,42 L-20,42 L-20,40 L-22,40 L-22,28 L-20,28 L-20,26 L-18,26 L-18,24 L-17,24 L-17,23 L-16,23 L-16,20 L-14,20 L-14,18 L-12,18 L-12,15 L-11,15 L-11,14 L-10,14 L-10,12 L-8,12 L-8,10 L-6,10 L-6,6 L-4,6 L-4,4 L-2,4 L-2,2 L0,2 Z " fill="#000000" transform="translate(385,89)"/>
<path d="M0,0 L33,0 L33,1 L34,1 L34,2 L36,2 L36,4 L38,4 L38,16 L36,16 L36,18 L34,18 L34,20 L-2,20 L-2,18 L-4,18 L-4,16 L-6,16 L-6,4 L-4,4 L-4,2 L-1,2 L-1,1 L0,1 Z " fill="#000000" transform="translate(429,247)"/>
<path d="M0,0 L33,0 L33,1 L34,1 L34,2 L37,2 L37,4 L39,4 L39,16 L37,16 L37,18 L35,18 L35,20 L-1,20 L-1,18 L-3,18 L-3,16 L-5,16 L-5,4 L-3,4 L-3,2 L-1,2 L-1,1 L0,1 Z " fill="#000000" transform="translate(50,247)"/>
<path d="M0,0 L1,0 L1,21 L0,21 L0,25 L-1,25 L-1,35 L-2,35 L-2,37 L-3,37 L-3,56 L-4,56 L-4,59 L-5,59 L-5,77 L-6,77 L-6,78 L-7,78 L-7,97 L-8,97 L-8,103 L-9,103 L-9,123 L-10,123 L-10,127 L-11,127 L-11,143 L-12,143 L-12,145 L-13,145 L-13,163 L-12,163 L-12,162 L-11,162 L-11,161 L-10,161 L-10,160 L-9,160 L-9,155 L-8,155 L-8,154 L-7,154 L-7,151 L-6,151 L-6,150 L-5,150 L-5,147 L-4,147 L-4,146 L-3,146 L-3,143 L-2,143 L-2,142 L-1,142 L-1,139 L0,139 L0,138 L1,138 L1,135 L2,135 L2,134 L3,134 L3,131 L4,131 L4,130 L5,130 L5,127 L6,127 L6,126 L7,126 L7,123 L8,123 L8,122 L9,122 L9,119 L10,119 L10,118 L11,118 L11,115 L12,115 L12,114 L13,114 L13,111 L14,111 L14,110 L15,110 L15,107 L16,107 L16,106 L17,106 L17,103 L18,103 L18,102 L19,102 L19,99 L20,99 L20,98 L21,98 L21,95 L22,95 L22,93 L25,93 L25,91 L36,91 L36,92 L27,92 L27,93 L26,93 L26,94 L24,94 L24,97 L23,97 L23,98 L22,98 L22,101 L21,101 L21,102 L20,102 L20,105 L19,105 L19,106 L18,106 L18,109 L17,109 L17,110 L16,110 L16,113 L15,113 L15,114 L14,114 L14,117 L13,117 L13,118 L12,118 L12,121 L11,121 L11,122 L10,122 L10,125 L9,125 L9,126 L8,126 L8,129 L7,129 L7,130 L6,130 L6,133 L5,133 L5,134 L4,134 L4,137 L3,137 L3,138 L2,138 L2,141 L1,141 L1,142 L0,142 L0,145 L-1,145 L-1,146 L-2,146 L-2,149 L-3,149 L-3,150 L-4,150 L-4,153 L-5,153 L-5,154 L-6,154 L-6,157 L-7,157 L-7,158 L-8,158 L-8,161 L-9,161 L-9,162 L-10,162 L-10,165 L-11,165 L-11,166 L-12,166 L-12,167 L-15,167 L-15,157 L-14,157 L-14,135 L-12,135 L-12,118 L-11,118 L-11,115 L-10,115 L-10,102 L-9,102 L-9,95 L-8,95 L-8,74 L-6,74 L-6,53 L-4,53 L-4,33 L-2,33 L-2,13 L0,13 Z " fill="#363113" transform="translate(225,305)"/>
<path d="M0,0 L1,0 L1,2 L0,2 L0,5 L-1,5 L-1,6 L-2,6 L-2,9 L-3,9 L-3,10 L-4,10 L-4,13 L-5,13 L-5,14 L-6,14 L-6,17 L-7,17 L-7,18 L-8,18 L-8,21 L-9,21 L-9,22 L-10,22 L-10,25 L-11,25 L-11,26 L-12,26 L-12,29 L-13,29 L-13,30 L-14,30 L-14,33 L-15,33 L-15,34 L-16,34 L-16,37 L-17,37 L-17,38 L-18,38 L-18,41 L-19,41 L-19,42 L-20,42 L-20,45 L-21,45 L-21,46 L-22,46 L-22,49 L-23,49 L-23,50 L-24,50 L-24,53 L-25,53 L-25,54 L-26,54 L-26,57 L-27,57 L-27,58 L-28,58 L-28,61 L-29,61 L-29,62 L-30,62 L-30,65 L-31,65 L-31,66 L-32,66 L-32,69 L-33,69 L-33,70 L-34,70 L-34,73 L-35,73 L-35,74 L-36,74 L-36,77 L-37,77 L-37,78 L-38,78 L-38,81 L-39,81 L-39,82 L-40,82 L-40,85 L-41,85 L-41,86 L-42,86 L-42,89 L-43,89 L-43,90 L-44,90 L-44,93 L-45,93 L-45,94 L-46,94 L-46,97 L-47,97 L-47,98 L-48,98 L-48,101 L-49,101 L-49,102 L-50,102 L-50,105 L-51,105 L-51,106 L-52,106 L-52,109 L-53,109 L-53,110 L-54,110 L-54,113 L-55,113 L-55,114 L-56,114 L-56,117 L-57,117 L-57,118 L-58,118 L-58,121 L-59,121 L-59,122 L-60,122 L-60,125 L-61,125 L-61,126 L-62,126 L-62,129 L-63,129 L-63,130 L-64,130 L-64,133 L-65,133 L-65,134 L-66,134 L-66,137 L-67,137 L-67,138 L-68,138 L-68,141 L-69,141 L-69,142 L-70,142 L-70,145 L-71,145 L-71,146 L-72,146 L-72,149 L-73,149 L-73,150 L-74,150 L-74,153 L-75,153 L-75,154 L-76,154 L-76,157 L-77,157 L-77,158 L-78,158 L-78,161 L-79,161 L-79,162 L-80,162 L-80,170 L-79,170 L-79,171 L-81,171 L-81,168 L-82,168 L-82,163 L-81,163 L-81,159 L-80,159 L-80,158 L-79,158 L-79,155 L-78,155 L-78,154 L-77,154 L-77,151 L-76,151 L-76,150 L-75,150 L-75,147 L-74,147 L-74,146 L-73,146 L-73,143 L-72,143 L-72,142 L-71,142 L-71,139 L-70,139 L-70,138 L-69,138 L-69,135 L-68,135 L-68,134 L-67,134 L-67,131 L-66,131 L-66,130 L-65,130 L-65,127 L-64,127 L-64,126 L-63,126 L-63,123 L-62,123 L-62,122 L-61,122 L-61,119 L-60,119 L-60,118 L-59,118 L-59,115 L-58,115 L-58,114 L-57,114 L-57,111 L-56,111 L-56,110 L-55,110 L-55,107 L-54,107 L-54,106 L-53,106 L-53,103 L-52,103 L-52,102 L-51,102 L-51,99 L-50,99 L-50,98 L-49,98 L-49,95 L-48,95 L-48,94 L-47,94 L-47,91 L-46,91 L-46,90 L-45,90 L-45,87 L-44,87 L-44,86 L-43,86 L-43,83 L-42,83 L-42,82 L-41,82 L-41,79 L-40,79 L-40,78 L-39,78 L-39,75 L-38,75 L-38,74 L-37,74 L-37,71 L-36,71 L-36,70 L-35,70 L-35,67 L-34,67 L-34,66 L-33,66 L-33,63 L-32,63 L-32,62 L-31,62 L-31,59 L-30,59 L-30,58 L-29,58 L-29,55 L-28,55 L-28,54 L-27,54 L-27,51 L-26,51 L-26,50 L-25,50 L-25,47 L-24,47 L-24,46 L-23,46 L-23,43 L-22,43 L-22,42 L-21,42 L-21,39 L-20,39 L-20,38 L-19,38 L-19,35 L-18,35 L-18,34 L-17,34 L-17,31 L-16,31 L-16,30 L-15,30 L-15,27 L-14,27 L-14,26 L-13,26 L-13,23 L-12,23 L-12,22 L-11,22 L-11,19 L-10,19 L-10,18 L-9,18 L-9,15 L-8,15 L-8,14 L-7,14 L-7,11 L-6,11 L-6,10 L-5,10 L-5,7 L-4,7 L-4,6 L-3,6 L-3,3 L-2,3 L-2,2 L-1,2 L-1,1 L0,1 Z " fill="#534C28" transform="translate(343,209)"/>
<path d="M0,0 L2,0 L2,6 L1,6 L1,17 L0,17 L0,29 L-1,29 L-1,38 L-2,38 L-2,52 L-3,52 L-3,62 L-4,62 L-4,72 L-5,72 L-5,78 L-6,78 L-6,93 L-7,93 L-7,94 L-8,94 L-8,122 L-9,122 L-9,126 L-10,126 L-10,152 L-11,152 L-11,157 L-10,157 L-10,160 L-9,160 L-9,161 L-8,161 L-8,162 L-7,162 L-7,163 L-9,163 L-9,162 L-10,162 L-10,161 L-11,161 L-11,159 L-12,159 L-12,142 L-11,142 L-11,117 L-10,117 L-10,114 L-9,114 L-9,89 L-8,89 L-8,88 L-7,88 L-7,65 L-6,65 L-6,64 L-5,64 L-5,41 L-4,41 L-4,40 L-3,40 L-3,21 L-2,21 L-2,18 L-1,18 L-1,7 L-3,7 L-3,8 L-4,8 L-4,6 L-3,6 L-3,2 L-2,2 L-2,1 L0,1 Z " fill="#AD9C3E" transform="translate(266,38)"/>
<path d="M0,0 L11,0 L11,1 L2,1 L2,2 L1,2 L1,3 L-1,3 L-1,6 L-2,6 L-2,7 L-3,7 L-3,10 L-4,10 L-4,11 L-5,11 L-5,14 L-6,14 L-6,15 L-7,15 L-7,18 L-8,18 L-8,19 L-9,19 L-9,22 L-10,22 L-10,23 L-11,23 L-11,26 L-12,26 L-12,27 L-13,27 L-13,30 L-14,30 L-14,31 L-15,31 L-15,34 L-16,34 L-16,35 L-17,35 L-17,38 L-18,38 L-18,39 L-19,39 L-19,42 L-20,42 L-20,43 L-21,43 L-21,46 L-22,46 L-22,47 L-23,47 L-23,50 L-24,50 L-24,51 L-25,51 L-25,54 L-26,54 L-26,55 L-27,55 L-27,58 L-28,58 L-28,59 L-29,59 L-29,62 L-30,62 L-30,63 L-31,63 L-31,66 L-32,66 L-32,67 L-33,67 L-33,70 L-34,70 L-34,71 L-35,71 L-35,74 L-36,74 L-36,75 L-37,75 L-37,76 L-40,76 L-40,66 L-39,66 L-39,63 L-38,63 L-38,72 L-37,72 L-37,71 L-36,71 L-36,70 L-35,70 L-35,69 L-34,69 L-34,64 L-33,64 L-33,63 L-32,63 L-32,60 L-31,60 L-31,59 L-30,59 L-30,56 L-29,56 L-29,55 L-28,55 L-28,52 L-27,52 L-27,51 L-26,51 L-26,48 L-25,48 L-25,47 L-24,47 L-24,44 L-23,44 L-23,43 L-22,43 L-22,40 L-21,40 L-21,39 L-20,39 L-20,36 L-19,36 L-19,35 L-18,35 L-18,32 L-17,32 L-17,31 L-16,31 L-16,28 L-15,28 L-15,27 L-14,27 L-14,24 L-13,24 L-13,23 L-12,23 L-12,20 L-11,20 L-11,19 L-10,19 L-10,16 L-9,16 L-9,15 L-8,15 L-8,12 L-7,12 L-7,11 L-6,11 L-6,8 L-5,8 L-5,7 L-4,7 L-4,4 L-3,4 L-3,2 L0,2 Z " fill="#51481D" transform="translate(250,396)"/>
<path d="M0,0 L2,0 L2,2 L1,2 L1,6 L-1,6 L-1,9 L-2,9 L-2,10 L-3,10 L-3,13 L-4,13 L-4,14 L-5,14 L-5,17 L-6,17 L-6,18 L-7,18 L-7,19 L77,19 L77,21 L-8,21 L-8,17 L-7,17 L-7,16 L-6,16 L-6,11 L-5,11 L-5,9 L-4,9 L-4,7 L-3,7 L-3,5 L-1,5 L-1,4 L0,4 Z " fill="#BCA842" transform="translate(142,278)"/>
<path d="M0,0 L1,0 L1,18 L-1,18 L-1,44 L-2,44 L-2,47 L-3,47 L-3,65 L-4,65 L-4,68 L-5,68 L-5,98 L-6,98 L-6,95 L-7,95 L-7,90 L-6,90 L-6,64 L-5,64 L-5,60 L-4,60 L-4,32 L-3,32 L-3,31 L-2,31 L-2,16 L-1,16 L-1,10 L0,10 Z " fill="#4A4423" transform="translate(262,100)"/>
<path d="M0,0 L1,0 L1,6 L0,6 L0,29 L-1,29 L-1,30 L-2,30 L-2,58 L-3,58 L-3,62 L-4,62 L-4,88 L-5,88 L-5,93 L-4,93 L-4,96 L-3,96 L-3,97 L-2,97 L-2,98 L-1,98 L-1,99 L-3,99 L-3,98 L-4,98 L-4,97 L-5,97 L-5,95 L-6,95 L-6,78 L-5,78 L-5,53 L-4,53 L-4,50 L-3,50 L-3,25 L-2,25 L-2,24 L-1,24 L-1,1 L0,1 Z " fill="#B8A855" transform="translate(260,102)"/>
<path d="M0,0 L2,0 L2,1 L4,1 L4,2 L5,2 L5,31 L4,31 L4,34 L3,34 L3,54 L2,54 L2,56 L1,56 L1,66 L0,66 L0,69 L-1,69 L-1,76 L-2,76 L-2,64 L-1,64 L-1,61 L0,61 L0,42 L1,42 L1,40 L2,40 L2,30 L3,30 L3,26 L4,26 L4,5 L3,5 L3,4 L2,4 L2,2 L1,2 L1,1 L0,1 Z " fill="#D0BB4A" transform="translate(222,300)"/>
<path d="M0,0 L1,0 L1,8 L0,8 L0,25 L-1,25 L-1,28 L-2,28 L-2,50 L-3,50 L-3,54 L-4,54 L-4,74 L-6,74 L-6,82 L-4,82 L-4,81 L-3,81 L-3,83 L-4,83 L-4,84 L-5,84 L-5,85 L-6,85 L-6,86 L-7,86 L-7,68 L-6,68 L-6,66 L-5,66 L-5,50 L-4,50 L-4,46 L-3,46 L-3,26 L-2,26 L-2,20 L-1,20 L-1,1 L0,1 Z " fill="#B6A440" transform="translate(219,382)"/>
<path d="M0,0 L1,0 L1,3 L0,3 L0,4 L-1,4 L-1,8 L86,8 L86,9 L87,9 L87,10 L84,10 L84,9 L-3,9 L-3,5 L-2,5 L-2,1 L0,1 Z " fill="#584F1F" transform="translate(135,291)"/>
<path d="M0,0 L1,0 L1,11 L0,11 L0,17 L-1,17 L-1,37 L-2,37 L-2,41 L-3,41 L-3,57 L-4,57 L-4,59 L-5,59 L-5,68 L-6,68 L-6,49 L-4,49 L-4,32 L-3,32 L-3,29 L-2,29 L-2,16 L-1,16 L-1,9 L0,9 Z " fill="#443D18" transform="translate(217,391)"/>
<path d="M0,0 L1,0 L1,2 L0,2 L0,7 L-2,7 L-2,10 L-3,10 L-3,11 L-4,11 L-4,14 L-6,14 L-6,18 L-8,18 L-8,22 L-10,22 L-10,26 L-12,26 L-12,30 L-14,30 L-14,34 L-16,34 L-16,38 L-18,38 L-18,41 L-19,41 L-19,42 L-20,42 L-20,45 L-21,45 L-21,46 L-22,46 L-22,47 L-23,47 L-23,48 L-24,48 L-24,49 L-25,49 L-25,47 L-24,47 L-24,45 L-23,45 L-23,43 L-22,43 L-22,41 L-21,41 L-21,39 L-20,39 L-20,37 L-18,37 L-18,36 L-17,36 L-17,32 L-15,32 L-15,28 L-13,28 L-13,24 L-11,24 L-11,20 L-9,20 L-9,16 L-8,16 L-8,15 L-7,15 L-7,12 L-6,12 L-6,11 L-5,11 L-5,8 L-4,8 L-4,7 L-3,7 L-3,6 L-2,6 L-2,5 L-1,5 L-1,1 L0,1 Z " fill="#B3A13F" transform="translate(195,176)"/>
<path d="M0,0 L1,0 L1,21 L0,21 L0,22 L-1,22 L-1,41 L-2,41 L-2,56 L-3,56 L-3,61 L-4,61 L-4,68 L-5,68 L-5,56 L-4,56 L-4,41 L-3,41 L-3,35 L-2,35 L-2,20 L-1,20 L-1,15 L0,15 Z " fill="#FEE669" transform="translate(255,316)"/>
<path d="M0,0 L1,0 L1,2 L0,2 L0,6 L-1,6 L-1,7 L-2,7 L-2,8 L-4,8 L-4,9 L-40,9 L-40,8 L-41,8 L-41,7 L-42,7 L-42,6 L-43,6 L-43,5 L-41,5 L-41,6 L-37,6 L-37,7 L-6,7 L-6,6 L-2,6 L-2,5 L-1,5 L-1,1 L0,1 Z " fill="#38341B" transform="translate(300,193)"/>
<path d="M0,0 L1,0 L1,2 L0,2 L0,7 L-2,7 L-2,11 L-4,11 L-4,15 L-6,15 L-6,19 L-8,19 L-8,23 L-10,23 L-10,27 L-12,27 L-12,30 L-14,30 L-14,34 L-16,34 L-16,38 L-18,38 L-18,36 L-17,36 L-17,32 L-16,32 L-16,31 L-15,31 L-15,28 L-14,28 L-14,27 L-13,27 L-13,24 L-12,24 L-12,20 L-9,20 L-9,17 L-8,17 L-8,16 L-7,16 L-7,13 L-6,13 L-6,12 L-5,12 L-5,9 L-4,9 L-4,8 L-3,8 L-3,5 L-2,5 L-2,4 L-1,4 L-1,1 L0,1 Z " fill="#B8A541" transform="translate(169,226)"/>
<path d="M0,0 L1,0 L1,3 L0,3 L0,5 L-1,5 L-1,7 L-2,7 L-2,9 L-3,9 L-3,11 L-4,11 L-4,13 L-5,13 L-5,15 L-6,15 L-6,17 L-7,17 L-7,19 L-8,19 L-8,22 L-9,22 L-9,23 L-10,23 L-10,25 L-11,25 L-11,26 L-12,26 L-12,28 L-13,28 L-13,30 L-14,30 L-14,32 L-15,32 L-15,34 L-16,34 L-16,37 L-17,37 L-17,38 L-18,38 L-18,39 L-19,39 L-19,37 L-18,37 L-18,34 L-17,34 L-17,33 L-16,33 L-16,30 L-15,30 L-15,29 L-14,29 L-14,27 L-13,27 L-13,25 L-12,25 L-12,23 L-11,23 L-11,21 L-10,21 L-10,19 L-9,19 L-9,17 L-8,17 L-8,15 L-7,15 L-7,13 L-6,13 L-6,11 L-5,11 L-5,9 L-4,9 L-4,7 L-3,7 L-3,5 L-2,5 L-2,3 L-1,3 L-1,1 L0,1 Z " fill="#FDE668" transform="translate(211,205)"/>
<path d="M0,0 L1,0 L1,4 L-1,4 L-1,8 L-3,8 L-3,12 L-5,12 L-5,16 L-7,16 L-7,20 L-9,20 L-9,23 L-10,23 L-10,24 L-11,24 L-11,27 L-12,27 L-12,28 L-13,28 L-13,31 L-14,31 L-14,32 L-15,32 L-15,35 L-17,35 L-17,34 L-16,34 L-16,31 L-15,31 L-15,30 L-14,30 L-14,25 L-13,25 L-13,23 L-12,23 L-12,21 L-11,21 L-11,19 L-9,19 L-9,18 L-8,18 L-8,14 L-6,14 L-6,10 L-4,10 L-4,6 L-2,6 L-2,2 L0,2 Z " fill="#B9A641" transform="translate(256,58)"/>
<path d="M0,0 L1,0 L1,17 L0,17 L0,20 L-1,20 L-1,50 L-2,50 L-2,47 L-3,47 L-3,42 L-2,42 L-2,16 L-1,16 L-1,12 L0,12 Z " fill="#343019" transform="translate(258,148)"/>
<path d="M0,0 L1,0 L1,8 L0,8 L0,26 L-1,26 L-1,29 L-2,29 L-2,36 L-3,36 L-3,24 L-2,24 L-2,21 L-1,21 L-1,2 L0,2 Z " fill="#948534" transform="translate(223,340)"/>
<path d="M0,0 L1,0 L1,3 L0,3 L0,8 L-2,8 L-2,12 L-4,12 L-4,16 L-5,16 L-5,17 L-6,17 L-6,20 L-8,20 L-8,24 L-11,24 L-11,22 L-10,22 L-10,21 L-9,21 L-9,18 L-8,18 L-8,17 L-7,17 L-7,14 L-6,14 L-6,13 L-5,13 L-5,10 L-4,10 L-4,9 L-3,9 L-3,6 L-2,6 L-2,4 L-1,4 L-1,2 L0,2 Z " fill="#AC9A3D" transform="translate(207,151)"/>
<path d="M0,0 L2,0 L2,1 L26,1 L26,2 L27,2 L27,7 L25,7 L25,9 L24,9 L24,5 L25,5 L25,2 L1,2 L1,1 L0,1 Z " fill="#504927" transform="translate(320,200)"/>
<path d="M0,0 L2,0 L2,8 L1,8 L1,12 L0,12 L0,22 L-1,22 L-1,3 L0,3 Z " fill="#B9AA5B" transform="translate(256,152)"/>
<path d="M0,0 L1,0 L1,4 L-1,4 L-1,8 L-3,8 L-3,12 L-5,12 L-5,16 L-8,16 L-8,14 L-7,14 L-7,13 L-6,13 L-6,10 L-5,10 L-5,9 L-4,9 L-4,6 L-3,6 L-3,5 L-2,5 L-2,2 L-1,2 L-1,1 L0,1 Z " fill="#B7A440" transform="translate(238,93)"/>
<path d="M0,0 L3,0 L3,2 L2,2 L2,3 L1,3 L1,5 L-1,5 L-1,9 L-3,9 L-3,13 L-5,13 L-5,17 L-7,17 L-7,21 L-8,21 L-8,22 L-9,22 L-9,20 L-8,20 L-8,16 L-6,16 L-6,12 L-4,12 L-4,8 L-2,8 L-2,4 L0,4 Z " fill="#49421A" transform="translate(255,55)"/>
<path d="M0,0 L2,0 L2,6 L1,6 L1,17 L0,17 L0,4 L-2,4 L-2,7 L-3,7 L-3,8 L-4,8 L-4,6 L-3,6 L-3,2 L-2,2 L-2,1 L0,1 Z " fill="#5E5421" transform="translate(266,38)"/>
<path d="M0,0 L2,0 L2,1 L1,1 L1,5 L0,5 L0,10 L-2,10 L-2,14 L-4,14 L-4,18 L-6,18 L-6,16 L-5,16 L-5,12 L-4,12 L-4,11 L-3,11 L-3,8 L-2,8 L-2,7 L-1,7 L-1,4 L0,4 Z " fill="#998936" transform="translate(157,246)"/>
<path d="M0,0 L1,0 L1,1 L2,1 L2,2 L4,2 L4,3 L5,3 L5,8 L4,8 L4,10 L3,10 L3,12 L2,12 L2,13 L1,13 L1,11 L2,11 L2,3 L1,3 L1,2 L0,2 Z " fill="#6D6126" transform="translate(207,138)"/>
<path d="M0,0 L2,0 L2,2 L1,2 L1,6 L-1,6 L-1,9 L-2,9 L-2,10 L-3,10 L-3,11 L-4,11 L-4,12 L-5,12 L-5,13 L-6,13 L-6,11 L-5,11 L-5,9 L-4,9 L-4,7 L-3,7 L-3,5 L-1,5 L-1,4 L0,4 Z " fill="#A6953B" transform="translate(142,278)"/>
<path d="M0,0 L1,0 L1,9 L2,9 L2,8 L3,8 L3,10 L2,10 L2,11 L1,11 L1,13 L-1,13 L-1,3 L0,3 Z " fill="#675C24" transform="translate(211,459)"/>
<path d="M0,0 L1,0 L1,2 L0,2 L0,3 L-1,3 L-1,4 L-2,4 L-2,5 L-8,5 L-8,3 L-11,3 L-11,2 L-1,2 L-1,1 L0,1 Z " fill="#C6B246" transform="translate(224,120)"/>
<path d="M0,0 L1,0 L1,14 L3,14 L3,13 L4,13 L4,15 L3,15 L3,16 L2,16 L2,17 L1,17 L1,18 L0,18 Z " fill="#B09E3E" transform="translate(212,450)"/>
<path d="M0,0 L1,0 L1,2 L0,2 L0,5 L-2,5 L-2,9 L-4,9 L-4,13 L-6,13 L-6,12 L-5,12 L-5,7 L-4,7 L-4,6 L-3,6 L-3,3 L-2,3 L-2,2 L-1,2 L-1,1 L0,1 Z " fill="#B2A03F" transform="translate(263,45)"/>
<path d="M0,0 L1,0 L1,2 L0,2 L0,3 L-1,3 L-1,6 L-2,6 L-2,7 L-3,7 L-3,8 L-4,8 L-4,9 L-5,9 L-5,10 L-6,10 L-6,8 L-5,8 L-5,6 L-4,6 L-4,4 L-3,4 L-3,2 L-1,2 L-1,1 L0,1 Z " fill="#A3923A" transform="translate(176,215)"/>
<path d="M0,0 L2,0 L2,1 L4,1 L4,2 L5,2 L5,13 L4,13 L4,5 L3,5 L3,4 L2,4 L2,2 L1,2 L1,1 L0,1 Z " fill="#A7963B" transform="translate(222,300)"/>
<path d="M0,0 L1,0 L1,2 L0,2 L0,7 L-2,7 L-2,10 L-4,10 L-4,9 L-3,9 L-3,4 L-2,4 L-2,3 L-1,3 L-1,1 L0,1 Z " fill="#B3A13F" transform="translate(229,110)"/>
<path d="M0,0 L1,0 L1,2 L0,2 L0,5 L-1,5 L-1,6 L-2,6 L-2,7 L-3,7 L-3,8 L-4,8 L-4,9 L-5,9 L-5,7 L-4,7 L-4,6 L-3,6 L-3,3 L-2,3 L-2,2 L-1,2 L-1,1 L0,1 Z " fill="#5A522C" transform="translate(343,209)"/>
<path d="M0,0 L3,0 L3,2 L2,2 L2,3 L1,3 L1,6 L0,6 L0,7 L-1,7 L-1,8 L-2,8 L-2,4 L0,4 Z " fill="#52491D" transform="translate(239,86)"/>
</svg>
