<?xml version="1.0" encoding="UTF-8"?>
<svg version="1.1" xmlns="http://www.w3.org/2000/svg" width="16" height="16">
<path d="M0 0 C5.28 0 10.56 0 16 0 C16 5.28 16 10.56 16 16 C10.72 16 5.44 16 0 16 C0 10.72 0 5.44 0 0 Z " fill="#F7F4DD" transform="translate(0,0)"/>
<path d="M0 0 C2.64 0 5.28 0 8 0 C8 5.28 8 10.56 8 16 C6.68 16 5.36 16 4 16 C4.33 13.03 4.66 10.06 5 7 C2.69 6.67 0.38 6.34 -2 6 C-1.01 5.34 -0.02 4.68 1 4 C0.67 2.68 0.34 1.36 0 0 Z " fill="#FBFBF6" transform="translate(8,0)"/>
<path d="M0 0 C1.65 0 3.3 0 5 0 C5.20140476 3.62528568 4.85776765 5.86501708 3 9 C2.34 9 1.68 9 1 9 C1 8.01 1 7.02 1 6 C0.34 6 -0.32 6 -1 6 C-0.67 4.02 -0.34 2.04 0 0 Z " fill="#5A9D5A" transform="translate(9,7)"/>
<path d="M0 0 C1.65 0 3.3 0 5 0 C4.34 2.97 3.68 5.94 3 9 C2.34 9 1.68 9 1 9 C0.67 6.03 0.34 3.06 0 0 Z " fill="#569956" transform="translate(3,7)"/>
<path d="M0 0 C3.3 0 6.6 0 10 0 C8.68 0.33 7.36 0.66 6 1 C5.67 2.98 5.34 4.96 5 7 C5.66 7 6.32 7 7 7 C7 7.99 7 8.98 7 10 C5.68 10 4.36 10 3 10 C3.33 7.36 3.66 4.72 4 2 C2.68 1.34 1.36 0.68 0 0 Z " fill="#B5D4B5" transform="translate(3,6)"/>
</svg>
